<svg width="1351" height="1013" viewBox="0 0 1351 1013" fill="none" xmlns="http://www.w3.org/2000/svg">
<path d="M874.807 135.975V134.722V135.975L873.564 134.722V135.975L674.79 214.736L474.773 135.975V134.722L473.53 135.975V134.722V135.975L273.51 215.982V842.299L473.53 766.034L674.79 842.299L874.807 766.034L1076.1 842.299V215.982L874.807 135.975Z" fill="url(#paint0_linear_1_7)"/>
<path d="M273.51 215.982V842.299L474.773 766.034V134.722L273.51 215.982Z" fill="url(#paint1_linear_1_7)"/>
<path d="M674.79 215.982V842.299L473.53 766.034V134.722L674.79 215.982Z" fill="url(#paint2_linear_1_7)"/>
<path d="M674.79 215.982V842.299L874.806 766.034V134.722L674.79 215.982Z" fill="url(#paint3_linear_1_7)"/>
<path d="M1076.1 215.982V842.299L873.564 766.034V134.722L1076.1 215.982Z" fill="url(#paint4_linear_1_7)"/>
<mask id="mask0_1_7" style="mask-type:luminance" maskUnits="userSpaceOnUse" x="388" y="284" width="576" height="436">
<path d="M961.07 502.262C953.574 481.009 956.066 444.757 952.328 439.757C928.573 407.253 843.552 402.252 804.805 359.743C811.059 338.497 797.309 322.242 783.562 308.492C762.296 293.49 733.557 299.74 711.045 305.99C686.044 300.993 662.286 290.987 637.288 284.737C582.289 278.487 527.28 317.241 527.28 317.241C487.273 342.245 426.024 394.752 396.016 424.754C403.525 426.007 411.018 419.757 419.774 419.757L477.275 404.754C453.53 424.757 403.525 458.511 388.523 486.01C406.017 479.76 443.522 459.757 462.272 457.258C446.024 471.011 412.267 498.511 401.023 516.009C402.269 517.265 401.023 518.511 401.023 519.757C414.77 512.257 448.523 492.254 464.775 491.004C448.526 507.253 419.774 539.763 413.524 561.02C427.27 552.264 462.272 533.513 477.275 528.506C473.527 537.258 466.031 543.508 461.027 551.008C453.53 562.262 437.268 576.009 437.268 589.768C449.769 578.511 464.775 568.512 479.777 561.02C473.527 574.763 461.026 586.02 457.275 603.511C467.273 593.513 486.027 588.509 498.528 584.761L497.282 586.02C496.022 587.263 482.279 597.261 472.281 608.516C481.02 608.516 474.77 607.263 486.027 609.762H492.278C489.775 611.021 486.027 613.51 482.279 614.766C477.275 617.268 471.025 621.02 466.031 623.518C489.775 653.517 518.528 678.517 552.281 694.769C596.036 716.022 643.535 723.535 692.288 717.282C692.288 714.779 691.045 712.277 689.802 708.529C688.556 704.781 687.283 702.276 687.283 698.528C703.545 668.519 694.807 616.012 737.292 594.759C766.058 579.77 768.543 572.26 801.07 578.511C818.551 582.259 857.326 594.759 874.807 591.014C891.065 582.259 899.807 577.268 914.827 567.27C932.335 571.018 938.585 568.512 944.835 559.76C938.585 568.512 956.066 527.26 963.589 512.257L961.07 502.262Z" fill="white"/>
</mask>
<g mask="url(#mask0_1_7)">
<path d="M674.79 252.24C880.547 252.24 1047.33 365.294 1047.33 504.764C1047.33 644.237 880.544 757.281 674.79 757.281C469.063 757.281 302.262 644.234 302.262 504.764C302.262 365.294 469.063 252.24 674.79 252.24Z" fill="white"/>
</g>
<mask id="mask1_1_7" style="mask-type:luminance" maskUnits="userSpaceOnUse" x="388" y="284" width="576" height="436">
<path d="M961.07 502.262C953.574 481.009 956.066 444.757 952.328 439.757C928.573 407.253 843.552 402.252 804.805 359.743C811.059 338.497 797.309 322.242 783.562 308.492C762.296 293.49 733.557 299.74 711.045 305.99C686.044 300.993 662.286 290.987 637.288 284.737C582.289 278.487 527.28 317.241 527.28 317.241C487.273 342.245 426.024 394.752 396.016 424.754C403.525 426.007 411.018 419.757 419.774 419.757L477.275 404.754C453.53 424.757 403.525 458.511 388.523 486.01C406.017 479.76 443.522 459.757 462.272 457.258C446.024 471.011 412.267 498.511 401.023 516.009C402.269 517.265 401.023 518.511 401.023 519.757C414.77 512.257 448.523 492.254 464.775 491.004C448.526 507.253 419.774 539.763 413.524 561.02C427.27 552.264 462.272 533.513 477.275 528.506C473.527 537.258 466.031 543.508 461.027 551.008C453.53 562.262 437.268 576.009 437.268 589.768C449.769 578.511 464.775 568.512 479.777 561.02C473.527 574.763 461.026 586.02 457.275 603.511C467.273 593.513 486.027 588.509 498.528 584.761L497.282 586.02C496.022 587.263 482.279 597.261 472.281 608.516C481.02 608.516 474.77 607.263 486.027 609.762H492.278C489.775 611.021 486.027 613.51 482.279 614.766C477.275 617.268 471.025 621.02 466.031 623.518C489.775 653.517 518.528 678.517 552.281 694.769C596.036 716.022 643.535 723.535 692.288 717.282C692.288 714.779 691.045 712.277 689.802 708.529C688.556 704.781 687.283 702.276 687.283 698.528C703.545 668.519 694.807 616.012 737.292 594.759C766.058 579.77 768.543 572.26 801.07 578.511C818.551 582.259 857.326 594.759 874.807 591.014C891.065 582.259 899.807 577.268 914.827 567.27C932.335 571.018 938.585 568.512 944.835 559.76C938.585 568.512 956.066 527.26 963.589 512.257L961.07 502.262Z" fill="white"/>
</mask>
<g mask="url(#mask1_1_7)">
<path d="M278.514 227.236V861.05L477.278 782.286V147.226L278.514 227.236Z" fill="#F2F2F2"/>
</g>
<mask id="mask2_1_7" style="mask-type:luminance" maskUnits="userSpaceOnUse" x="388" y="284" width="576" height="436">
<path d="M961.07 502.262C953.574 481.009 956.066 444.757 952.328 439.757C928.573 407.253 843.552 402.252 804.805 359.743C811.059 338.497 797.309 322.242 783.562 308.492C762.296 293.49 733.557 299.74 711.045 305.99C686.044 300.993 662.286 290.987 637.288 284.737C582.289 278.487 527.28 317.241 527.28 317.241C487.273 342.245 426.024 394.752 396.016 424.754C403.525 426.007 411.018 419.757 419.774 419.757L477.275 404.754C453.53 424.757 403.525 458.511 388.523 486.01C406.017 479.76 443.522 459.757 462.272 457.258C446.024 471.011 412.267 498.511 401.023 516.009C402.269 517.265 401.023 518.511 401.023 519.757C414.77 512.257 448.523 492.254 464.775 491.004C448.526 507.253 419.774 539.763 413.524 561.02C427.27 552.264 462.272 533.513 477.275 528.506C473.527 537.258 466.031 543.508 461.027 551.008C453.53 562.262 437.268 576.009 437.268 589.768C449.769 578.511 464.775 568.512 479.777 561.02C473.527 574.763 461.026 586.02 457.275 603.511C467.273 593.513 486.027 588.509 498.528 584.761L497.282 586.02C496.022 587.263 482.279 597.261 472.281 608.516C481.02 608.516 474.77 607.263 486.027 609.762H492.278C489.775 611.021 486.027 613.51 482.279 614.766C477.275 617.268 471.025 621.02 466.031 623.518C489.775 653.517 518.528 678.517 552.281 694.769C596.036 716.022 643.535 723.535 692.288 717.282C692.288 714.779 691.045 712.277 689.802 708.529C688.556 704.781 687.283 702.276 687.283 698.528C703.545 668.519 694.807 616.012 737.292 594.759C766.058 579.77 768.543 572.26 801.07 578.511C818.551 582.259 857.326 594.759 874.807 591.014C891.065 582.259 899.807 577.268 914.827 567.27C932.335 571.018 938.585 568.512 944.835 559.76C938.585 568.512 956.066 527.26 963.589 512.257L961.07 502.262Z" fill="white"/>
</mask>
<g mask="url(#mask2_1_7)">
<path d="M676.056 227.236V861.05L476.032 782.286V147.226L676.056 227.236Z" fill="white"/>
</g>
<mask id="mask3_1_7" style="mask-type:luminance" maskUnits="userSpaceOnUse" x="388" y="284" width="576" height="436">
<path d="M961.07 502.262C953.574 481.009 956.066 444.757 952.328 439.757C928.573 407.253 843.552 402.252 804.805 359.743C811.059 338.497 797.309 322.242 783.562 308.492C762.296 293.49 733.557 299.74 711.045 305.99C686.044 300.993 662.286 290.987 637.288 284.737C582.289 278.487 527.28 317.241 527.28 317.241C487.273 342.245 426.024 394.752 396.016 424.754C403.525 426.007 411.018 419.757 419.774 419.757L477.275 404.754C453.53 424.757 403.525 458.511 388.523 486.01C406.017 479.76 443.522 459.757 462.272 457.258C446.024 471.011 412.267 498.511 401.023 516.009C402.269 517.265 401.023 518.511 401.023 519.757C414.77 512.257 448.523 492.254 464.775 491.004C448.526 507.253 419.774 539.763 413.524 561.02C427.27 552.264 462.272 533.513 477.275 528.506C473.527 537.258 466.031 543.508 461.027 551.008C453.53 562.262 437.268 576.009 437.268 589.768C449.769 578.511 464.775 568.512 479.777 561.02C473.527 574.763 461.026 586.02 457.275 603.511C467.273 593.513 486.027 588.509 498.528 584.761L497.282 586.02C496.022 587.263 482.279 597.261 472.281 608.516C481.02 608.516 474.77 607.263 486.027 609.762H492.278C489.775 611.021 486.027 613.51 482.279 614.766C477.275 617.268 471.025 621.02 466.031 623.518C489.775 653.517 518.528 678.517 552.281 694.769C596.036 716.022 643.535 723.535 692.288 717.282C692.288 714.779 691.045 712.277 689.802 708.529C688.556 704.781 687.283 702.276 687.283 698.528C703.545 668.519 694.807 616.012 737.292 594.759C766.058 579.77 768.543 572.26 801.07 578.511C818.551 582.259 857.326 594.759 874.807 591.014C891.065 582.259 899.807 577.268 914.827 567.27C932.335 571.018 938.585 568.512 944.835 559.76C938.585 568.512 956.066 527.26 963.589 512.257L961.07 502.262Z" fill="white"/>
</mask>
<g mask="url(#mask3_1_7)">
<path d="M676.056 227.236V861.05L873.564 782.286V147.226L676.056 227.236Z" fill="#F2F2F2"/>
</g>
<mask id="mask4_1_7" style="mask-type:luminance" maskUnits="userSpaceOnUse" x="388" y="284" width="576" height="436">
<path d="M961.07 502.262C953.574 481.009 956.066 444.757 952.328 439.757C928.573 407.253 843.552 402.252 804.805 359.743C811.059 338.497 797.309 322.242 783.562 308.492C762.296 293.49 733.557 299.74 711.045 305.99C686.044 300.993 662.286 290.987 637.288 284.737C582.289 278.487 527.28 317.241 527.28 317.241C487.273 342.245 426.024 394.752 396.016 424.754C403.525 426.007 411.018 419.757 419.774 419.757L477.275 404.754C453.53 424.757 403.525 458.511 388.523 486.01C406.017 479.76 443.522 459.757 462.272 457.258C446.024 471.011 412.267 498.511 401.023 516.009C402.269 517.265 401.023 518.511 401.023 519.757C414.77 512.257 448.523 492.254 464.775 491.004C448.526 507.253 419.774 539.763 413.524 561.02C427.27 552.264 462.272 533.513 477.275 528.506C473.527 537.258 466.031 543.508 461.027 551.008C453.53 562.262 437.268 576.009 437.268 589.768C449.769 578.511 464.775 568.512 479.777 561.02C473.527 574.763 461.026 586.02 457.275 603.511C467.273 593.513 486.027 588.509 498.528 584.761L497.282 586.02C496.022 587.263 482.279 597.261 472.281 608.516C481.02 608.516 474.77 607.263 486.027 609.762H492.278C489.775 611.021 486.027 613.51 482.279 614.766C477.275 617.268 471.025 621.02 466.031 623.518C489.775 653.517 518.528 678.517 552.281 694.769C596.036 716.022 643.535 723.535 692.288 717.282C692.288 714.779 691.045 712.277 689.802 708.529C688.556 704.781 687.283 702.276 687.283 698.528C703.545 668.519 694.807 616.012 737.292 594.759C766.058 579.77 768.543 572.26 801.07 578.511C818.551 582.259 857.326 594.759 874.807 591.014C891.065 582.259 899.807 577.268 914.827 567.27C932.335 571.018 938.585 568.512 944.835 559.76C938.585 568.512 956.066 527.26 963.589 512.257L961.07 502.262Z" fill="white"/>
</mask>
<g mask="url(#mask4_1_7)">
<path d="M1073.58 227.236V861.05L873.564 782.286V147.226L1073.58 227.236Z" fill="white"/>
</g>
<defs>
<linearGradient id="paint0_linear_1_7" x1="674.797" y1="843.007" x2="674.797" y2="135.435" gradientUnits="userSpaceOnUse">
<stop stop-color="#2075BC"/>
<stop offset="1" stop-color="#29AAE1"/>
</linearGradient>
<linearGradient id="paint1_linear_1_7" x1="374.139" y1="843.007" x2="374.139" y2="135.435" gradientUnits="userSpaceOnUse">
<stop stop-color="#0A6AA8"/>
<stop offset="1" stop-color="#1699C8"/>
</linearGradient>
<linearGradient id="paint2_linear_1_7" x1="574.154" y1="843.007" x2="574.154" y2="135.435" gradientUnits="userSpaceOnUse">
<stop stop-color="#2075BC"/>
<stop offset="1" stop-color="#29AAE1"/>
</linearGradient>
<linearGradient id="paint3_linear_1_7" x1="774.793" y1="843.007" x2="774.793" y2="135.435" gradientUnits="userSpaceOnUse">
<stop stop-color="#0A6AA8"/>
<stop offset="1" stop-color="#1699C8"/>
</linearGradient>
<linearGradient id="paint4_linear_1_7" x1="974.826" y1="843.007" x2="974.826" y2="135.435" gradientUnits="userSpaceOnUse">
<stop stop-color="#2075BC"/>
<stop offset="1" stop-color="#29AAE1"/>
</linearGradient>
</defs>
</svg>
